<?xml version="1.0" standalone="no"?>
<svg viewBox="0 0 200 200" xmlns="http://www.w3.org/2000/svg">
  <path fill="#E8DAFF" d="M46.5,-71.7C60.5,-72.4,72.3,-60.5,73.6,-46.4C75,-32.4,65.9,-16.2,57.7,-4.7C49.6,6.8,42.3,13.5,40.3,26.3C38.2,39.2,41.4,58.1,35.5,69.3C29.7,80.5,14.8,83.9,2.7,79.2C-9.4,74.5,-18.8,61.6,-29.6,53.3C-40.4,45,-52.6,41.2,-63.3,33.1C-73.9,25,-82.9,12.5,-85.7,-1.6C-88.5,-15.7,-85.1,-31.4,-74.1,-39C-63.1,-46.5,-44.6,-45.9,-31,-45.4C-17.4,-44.9,-8.7,-44.5,3.8,-51C16.2,-57.5,32.5,-70.9,46.5,-71.7Z" transform="translate(100 100)" />
</svg>
